<svg width="1442" height="181" viewBox="0 0 1442 181" fill="none" xmlns="http://www.w3.org/2000/svg">
<g clip-path="url(#clip0_1450_23)">
<path d="M1447 1026L1443.64 61.6791L1443.57 61.753C1443.7 60.3709 1443.75 58.9821 1443.72 57.5941C1443.63 55.2022 1443.12 52.8305 1442.78 50.2773C1442.3 48.9336 1442.3 47.5898 1441.27 46.6828C1439.61 44.4051 1438.17 42.2954 1436.57 40.2999C1434.56 37.7535 1432.42 35.281 1430.31 32.7951C1428.37 30.4586 1427.03 27.6947 1426.37 24.7325C1425.4 20.7819 1424.22 16.8783 1422.87 13.0418C1421.48 9.08135 1419.48 5.35682 1416.97 1.99617C1415.35 -0.173994 1413.76 -0.489777 1411.59 1.06226C1409.79 2.34341 1408.11 3.78729 1406.58 5.37572C1403.05 9.10475 1400.1 13.3505 1397.85 17.9667C1397.45 18.7663 1396.92 19.512 1396.51 20.2309C1385.24 18.6671 1373.8 18.7033 1362.54 20.3384C1361.87 19.4852 1361.35 18.7394 1360.78 18.0205C1358.88 15.6622 1357.06 13.2434 1355.06 10.9725C1352.56 8.05288 1349.66 5.49152 1346.46 3.36008C1344.44 2.05664 1343.43 2.2582 1341.87 4.12603C1341.25 4.8684 1340.73 5.68556 1340.32 6.55822C1339.57 8.16401 1338.82 9.82355 1338.22 11.5234C1335.91 17.8756 1334.58 24.5475 1334.3 31.3035C1334.28 31.8561 1334.21 32.4061 1334.11 32.9496L1333.91 32.5465C1332.47 29.7918 1330.35 29.093 1327.54 30.3629C1326.59 30.8045 1325.67 31.3002 1324.77 31.8477C1319.21 35.2744 1314.39 39.7873 1310.61 45.1173C1309.99 45.9572 1309.38 46.7769 1308.68 47.7175C1297.52 45.3659 1286.47 45.1845 1275.68 48.8059C1272.61 45.5473 1269.97 42.6112 1267.2 39.8028C1264.2 36.8536 1260.7 34.4644 1256.87 32.748C1255.16 31.9485 1254.34 32.2576 1253.46 33.9305C1252.97 34.8655 1252.58 35.8441 1252.28 36.8532C1248.69 48.3356 1248.46 59.9793 1250.72 71.717C1251.03 73.2959 1251.6 74.8278 1252.01 76.2589C1251.72 76.7896 1251.44 77.3137 1251.17 77.8243C1250.32 76.5478 1249.5 75.2511 1248.66 73.961C1247.55 72.3056 1247.04 70.3129 1247.23 68.324C1247.41 66.2412 1247.52 64.1449 1247.6 62.0486C1247.82 57.7327 1247.13 53.4191 1245.59 49.3837C1245.09 48.0785 1244.41 46.8485 1243.57 45.7287C1242.11 43.7937 1240.47 43.5115 1238.37 44.7142C1237.37 45.3102 1236.43 45.9842 1235.54 46.7298C1229.68 51.564 1224.92 57.5841 1221.56 64.3935C1221.1 65.3005 1220.58 66.1807 1220.07 67.081C1216.62 66.8929 1213.36 66.7048 1210.12 66.5368C1206.89 66.3688 1203.68 67.2087 1200.41 66.7249C1200.22 66.2637 1200.06 65.7901 1199.94 65.3073C1198.59 57.836 1194.95 51.4128 1190.81 45.2114C1190.61 44.8877 1190.38 44.5779 1190.14 44.2842C1188.12 41.9595 1186.2 41.8117 1184.3 44.0154C1183.43 45.0999 1182.68 46.2812 1182.07 47.5361C1179.17 53.153 1178.28 59.2536 1178.2 65.4618C1178.2 66.7136 1177.99 67.9568 1177.6 69.1437C1177.5 68.9287 1177.41 68.707 1177.31 68.4718C1175.24 64.0441 1173.28 59.5627 1171.4 55.0342C1170.84 53.6344 1170.46 52.1724 1170.26 50.6805C1169.73 47.1195 1169.48 43.5048 1168.84 39.9304C1167.87 34.5554 1166.43 29.261 1163.82 24.3832C1163.24 23.2389 1162.54 22.1655 1161.72 21.185C1160.42 19.7203 1159.03 19.4919 1157.36 20.5602C1155.69 21.6183 1154.12 22.8163 1152.66 24.1413C1147.35 28.9586 1143.26 34.7301 1139.69 40.9382C1139.17 41.8251 1138.65 42.7053 1138.14 43.5653C1126.81 42.5507 1115.69 42.2215 1104.51 44.002C1103.92 43.2764 1103.59 42.9471 1103.35 42.5575C1099.63 36.7054 1094.92 31.7201 1089.75 27.1714C1087.82 25.494 1085.75 23.992 1083.56 22.6833C1081.54 21.4739 1080.66 21.83 1079.81 24.0271C1078.76 26.7146 1077.86 29.5029 1077.03 32.2844C1076.78 33.1377 1076.53 33.9977 1076.28 34.851C1075.67 34.1321 1075.06 33.4199 1074.45 32.701C1072.52 30.3645 1071.17 27.6006 1070.52 24.6385C1069.54 20.6878 1068.36 16.7842 1067.02 12.9478C1065.62 8.98728 1063.63 5.26275 1061.11 1.90211C1059.5 -0.268057 1057.91 -0.58384 1055.74 0.968198C1053.94 2.24935 1052.26 3.69323 1050.72 5.28166C1047.19 9.01069 1044.25 13.2564 1041.99 17.8727C1041.59 18.6722 1041.07 19.418 1040.65 20.1369C1029.38 18.573 1017.95 18.6092 1006.69 20.2444C1006.02 19.3911 1005.5 18.6453 1004.92 17.9264C1003.03 15.5681 1001.2 13.1494 999.209 10.8784C996.701 7.95882 993.805 5.39745 990.601 3.26602C988.586 1.96258 987.572 2.16414 986.015 4.03196C985.398 4.77434 984.876 5.5915 984.464 6.46416C983.691 8.16401 982.946 9.82355 982.348 11.5234C980.032 17.8756 978.709 24.5475 978.427 31.3035C978.399 31.849 978.337 32.3921 978.239 32.9294C978.028 33.0556 977.831 33.2019 977.648 33.3662C976.634 34.326 975.713 35.3787 974.895 36.5106C971.23 41.4766 968.059 46.7896 965.428 52.3736C964.226 54.8864 963.111 57.453 961.822 60.3354C960.6 60.3824 959.472 60.4294 958.35 60.5302C957.585 60.5907 956.819 60.6847 956.061 60.8124L953.959 60.5907C951.642 60.3555 949.333 60.1002 947.009 59.9188C944.572 59.7643 942.128 59.7911 939.69 59.6164C937.253 59.4418 934.856 60.1875 932.452 59.4552C932.123 58.6019 931.781 57.8561 931.539 57.0902C928.356 47.6839 923.072 39.5273 916.498 32.1568C915.977 31.5301 915.409 30.9439 914.799 30.4032C913.591 29.4088 912.449 29.6708 911.657 31.0751C911.326 31.6884 911.054 32.3318 910.844 32.9966C910.173 35.0929 909.387 37.1757 908.83 39.3123C905.097 53.5091 903.055 68.0284 900.773 82.5006C898.698 78.6642 896.623 74.8143 894.501 70.9981C894.046 70.0547 893.948 68.978 894.226 67.9679C894.582 65.7843 895.025 63.6141 895.24 61.4171C895.911 54.3422 896.509 47.2673 895.555 40.1656C895.289 37.4959 894.555 34.8941 893.386 32.4793C891.943 29.7246 889.821 29.0258 887.014 30.2957C886.064 30.7373 885.141 31.2331 884.248 31.7805C878.693 35.2319 873.891 39.7677 870.127 45.1173C869.516 45.9572 868.898 46.7769 868.2 47.7175C857.04 45.3659 845.988 45.1845 835.198 48.8059C832.136 45.5473 829.49 42.6112 826.717 39.8028C823.723 36.8536 820.225 34.4644 816.39 32.748C814.678 31.9485 813.865 32.2576 812.979 33.9305C812.494 34.8655 812.099 35.8441 811.797 36.8532C808.937 46.1578 808.085 55.9643 809.299 65.623C808.182 64.5535 807.003 63.5506 805.767 62.6197C805.119 62.0981 804.699 61.3434 804.599 60.5168C803.774 56.5074 802.419 52.6258 800.57 48.9739C799.896 47.649 799.091 46.3952 798.166 45.2315C797.717 44.6262 797.051 44.2183 796.307 44.0931C795.564 43.9678 794.801 44.135 794.178 44.5597C793.539 44.9462 792.94 45.3964 792.392 45.9034C788.596 49.2188 785.545 53.3017 783.441 57.883C783.179 58.4541 782.864 58.9983 782.595 59.5089C780.682 59.388 778.936 59.2066 777.183 59.1797C773.745 59.1327 770.307 59.1797 766.87 59.1797H764.896C762.174 53.8803 758.954 48.8521 755.28 44.1632C754.948 43.7165 754.589 43.2902 754.206 42.8867C753.272 41.9796 752.406 41.9393 751.567 42.8867C750.908 43.6627 750.338 44.51 749.868 45.4129C746.738 51.357 745.011 57.9396 744.819 64.6555C744.819 64.884 744.819 65.1057 744.765 65.3274C743.234 61.968 741.764 58.5347 740.32 55.1149C739.767 53.7151 739.385 52.2531 739.185 50.7611C738.648 47.2001 738.4 43.5854 737.762 40.011C736.788 34.636 735.351 29.3416 732.739 24.4638C732.166 23.3195 731.46 22.2462 730.638 21.2656C729.342 19.8009 727.952 19.5725 726.28 20.6408C724.614 21.6989 723.042 22.897 721.58 24.2219C716.275 29.0393 712.179 34.8107 708.607 41.0189C708.097 41.9057 707.573 42.7859 707.063 43.6459C695.735 42.6314 684.609 42.3021 673.429 44.0826C672.845 43.357 672.516 43.0278 672.267 42.6381C668.554 36.786 663.841 31.8007 658.67 27.2521C656.744 25.5746 654.672 24.0726 652.479 22.7639C650.465 21.5545 649.585 21.9106 648.733 24.1077C647.685 26.7952 646.779 29.5835 645.953 32.3651C645.342 34.4143 644.744 36.4702 644.194 38.5396C642.602 36.5979 640.971 34.6965 639.346 32.7816C637.412 30.4451 636.064 27.6813 635.411 24.7191C634.437 20.7684 633.255 16.8648 631.913 13.0284C630.514 9.06791 628.522 5.34338 626.004 1.98273C624.392 -0.187432 622.801 -0.503215 620.632 1.04882C618.832 2.32997 617.153 3.77386 615.616 5.36228C612.087 9.09839 609.148 13.351 606.901 17.9734C606.498 18.773 605.974 19.5188 605.558 20.2377C594.288 18.6738 582.855 18.71 571.595 20.3452C570.924 19.4919 570.407 18.7461 569.829 18.0272C567.936 15.6689 566.109 13.2501 564.115 10.9792C561.603 8.05865 558.702 5.49725 555.493 3.3668C553.479 2.06336 552.465 2.26492 550.907 4.13274C550.29 4.87512 549.769 5.69228 549.356 6.56494C548.584 8.16401 547.839 9.82355 547.241 11.5234C544.925 17.8756 543.602 24.5475 543.32 31.3035C543.25 32.9554 542.79 34.5671 541.977 36.0066C541.835 35.4127 541.646 34.8309 541.413 34.2665C540.527 32.3919 538.667 31.9418 537.142 33.3326C536.129 34.2924 535.207 35.3451 534.389 36.477C530.732 41.4548 527.57 46.7791 524.949 52.3736C523.686 55.0141 522.518 57.7486 521.141 60.7788C520.577 60.8729 520.02 60.9804 519.47 61.1282C519.391 61.1503 519.315 61.1795 519.241 61.2155C517.287 60.9938 515.401 60.7788 513.514 60.5839C511.197 60.3488 508.887 60.0935 506.564 59.9121C504.127 59.7575 501.683 59.7844 499.245 59.6097C496.808 59.435 494.411 60.1808 492.007 59.4485C491.678 58.5952 491.335 57.8494 491.094 57.0835C487.911 47.6772 482.626 39.5206 476.053 32.1501C475.532 31.5234 474.964 30.9372 474.354 30.3965C473.145 29.4021 472.004 29.6641 471.212 31.0683C470.867 31.6911 470.584 32.3459 470.366 33.0235C469.694 35.1198 468.909 37.2026 468.351 39.3392C465.148 51.5337 463.188 63.9568 461.274 76.3865C460.744 75.5736 460.22 74.7471 459.689 73.9342C458.572 72.2788 458.064 70.286 458.252 68.2971C458.44 66.2143 458.541 64.118 458.628 62.0218C458.845 57.7059 458.159 53.3923 456.614 49.3569C456.114 48.0516 455.436 46.8216 454.6 45.7018C453.136 43.7668 451.498 43.4847 449.396 44.6873C448.4 45.2834 447.452 45.9573 446.562 46.7029C440.718 51.5522 435.967 57.5862 432.623 64.4069C432.159 65.314 431.642 66.1941 431.132 67.0945C427.681 66.9063 424.418 66.7182 421.181 66.5502C417.945 66.3823 414.742 67.2221 411.472 66.7383C411.281 66.2772 411.122 65.8035 410.995 65.3207C409.652 57.8494 406.006 51.4263 401.87 45.2248C401.667 44.9011 401.443 44.5914 401.198 44.2976C399.184 41.9729 397.257 41.8251 395.363 44.0289C394.488 45.1133 393.74 46.2946 393.134 47.5495C390.227 53.1664 389.34 59.2671 389.26 65.4752C389.275 67.9304 388.477 70.3215 386.99 72.2746C385.647 74.0417 384.251 75.7415 382.881 77.4817C382.106 78.4581 381.366 79.4503 380.658 80.4581C378.96 77.3137 377.254 74.1626 375.515 71.0518C375.06 70.1084 374.962 69.0317 375.24 68.0216C375.596 65.838 376.039 63.6679 376.254 61.4708C376.925 54.3959 377.523 47.3211 376.569 40.2193C376.303 37.5497 375.569 34.9478 374.4 32.533C372.957 29.7783 370.835 29.0796 368.028 30.3494C367.078 30.791 366.155 31.2868 365.262 31.8343C359.693 35.2641 354.872 39.7817 351.087 45.1173C350.503 45.9773 349.832 46.797 349.16 47.7376C338 45.3861 326.948 45.2047 316.158 48.8261C313.096 45.5675 310.45 42.6314 307.677 39.8229C304.683 36.8738 301.185 34.4846 297.35 32.7682C295.638 31.9687 294.825 32.2777 293.939 33.9507C293.456 34.8792 293.06 35.851 292.757 36.8532C289.172 48.3356 288.943 59.9793 291.199 71.717C291.508 73.2959 292.079 74.8278 292.489 76.2589C291.616 77.8781 290.844 79.4033 290.011 80.8612C287.072 76.6168 283.464 72.8774 279.328 69.7887C278.512 69.1388 277.985 68.1919 277.864 67.1549C276.831 62.1351 275.136 57.2751 272.822 52.7028C271.982 51.0382 270.976 49.4625 269.82 47.9997C268.544 46.3804 266.617 46.1453 264.818 47.1867C264.019 47.6613 263.272 48.2174 262.589 48.8462C257.835 52.9923 254.014 58.0986 251.375 63.8291C251.053 64.5413 250.65 65.2266 250.314 65.8447C247.924 65.6969 245.735 65.4618 243.539 65.4349C239.235 65.3744 234.931 65.4349 230.627 65.4349H228.156C224.749 58.7959 220.717 52.4966 216.117 46.6223C215.704 46.059 215.255 45.5226 214.774 45.0165C213.605 43.8811 212.518 43.834 211.47 45.0165C210.645 45.9908 209.931 47.0545 209.342 48.1878C208.67 49.4576 207.999 50.7544 207.462 52.0645C205.917 48.7051 204.386 45.3458 202.761 42.0737C201.92 40.4145 201.683 38.514 202.09 36.6987C203.673 28.9151 203.568 20.882 201.781 13.1426C201.389 11.3457 200.824 9.59071 200.096 7.90198C199.115 5.67135 198.081 5.21447 195.624 5.66463C191.941 6.31029 188.453 7.78528 185.424 9.97808C180.57 13.446 176.69 18.1062 174.157 23.5097C173.768 24.3227 173.331 25.1155 172.908 25.9419C169.316 25.1625 165.945 24.2891 162.494 23.718C159.054 23.1472 155.587 22.757 152.106 22.5489C148.655 22.3541 145.19 22.5086 141.625 22.5086L140.027 18.5647C138.063 13.4498 135.19 8.73319 131.546 4.64337C130.59 3.62848 129.553 2.69368 128.444 1.84836C127.823 1.30116 127.03 0.987719 126.203 0.961967C125.376 0.936215 124.566 1.19976 123.912 1.70726C122.733 2.44731 121.677 3.36776 120.783 4.43509C119.302 6.37166 118.026 8.45668 116.975 10.6567C113.981 17.3352 112.443 24.3563 113.021 31.7066C113.192 33.4746 112.829 35.2532 111.98 36.8129C111.09 32.5275 109.62 28.384 107.609 24.4974C107.035 23.3531 106.329 22.2798 105.507 21.2992C104.211 19.8345 102.821 19.6061 101.149 20.6744C99.4836 21.7325 97.9112 22.9305 96.4488 24.2555C91.1443 29.0729 87.0484 34.8443 83.4762 41.0524C82.9659 41.9393 82.4421 42.8195 81.9318 43.6795C70.6043 42.665 59.4782 42.3357 48.2983 44.1162C47.7141 43.3906 47.3851 43.0614 47.1367 42.6717C43.4235 36.8196 38.7098 31.8343 33.5396 27.2857C31.6136 25.6082 29.5418 24.1062 27.3487 22.7975C25.3343 21.5881 24.4547 21.9442 23.602 24.1413C22.5478 26.8288 21.6413 29.5969 20.8154 32.3516C19.13 38.0424 17.4581 43.7736 16.9746 49.6995C16.7709 52.1378 15.9932 54.4931 14.7051 56.5728C12.6236 60.0666 10.495 63.5536 8.66194 67.1751C5.86866 72.6643 3.01495 78.1468 1.25572 84.0863C0.415647 87.0705 -0.00691942 90.157 8.56818e-05 93.2574L0.000100941 1026H1447Z" fill="url(#paint0_linear_1450_23)"/>
</g>
<defs>
<linearGradient id="paint0_linear_1450_23" x1="927.487" y1="927.086" x2="927.487" y2="-85.3117" gradientUnits="userSpaceOnUse">
<stop offset="0.0537711" stop-color="#1B9AE1"/>
<stop offset="1" stop-color="#0A4088"/>
</linearGradient>
<clipPath id="clip0_1450_23">
<rect width="1442" height="181" fill="white"/>
</clipPath>
</defs>
</svg>
