<svg width="31" height="32" viewBox="0 0 31 32" fill="none" xmlns="http://www.w3.org/2000/svg">
<path d="M30.3431 9.42357V9.53181C30.3431 10.8069 30.3431 11.446 30.0326 11.9679C29.7222 12.4898 29.1568 12.7997 28.029 13.421L26.8397 14.0734C27.6586 11.3333 27.933 8.38863 28.0335 5.87097L28.0485 5.54329L28.0515 5.46619C29.0278 5.80128 29.5767 6.05186 29.9187 6.5204C30.3431 7.10311 30.3431 7.87709 30.3431 9.42357ZM0.348297 9.42357V9.53181C0.348297 10.8069 0.348297 11.446 0.658743 11.9679C0.969189 12.4898 1.53459 12.7997 2.6624 13.421L3.85319 14.0734C3.03283 11.3333 2.75838 8.38863 2.6579 5.87097L2.6429 5.54329L2.6414 5.46619C1.66357 5.80128 1.11466 6.05186 0.772723 6.5204C0.348297 7.10311 0.348297 7.87857 0.348297 9.42357Z" fill="#51C2FF" fill-opacity="0.5"/>
<path fill-rule="evenodd" clip-rule="evenodd" d="M21.7511 0.769149C19.5906 0.414454 17.4044 0.240839 15.2152 0.250108C12.5527 0.250108 10.3576 0.484948 8.67923 0.769149C6.97842 1.05634 6.12877 1.19994 5.41798 2.07647C4.70869 2.95301 4.74602 3.89985 4.82069 5.79352C5.07902 12.2972 6.47968 20.4224 14.0952 21.1404V26.4265H11.9599C11.6148 26.4267 11.2805 26.5466 11.0137 26.7659C10.7469 26.9851 10.5641 27.2902 10.4965 27.6291L10.2128 29.0442H6.25569C5.95867 29.0442 5.67381 29.1623 5.46378 29.3727C5.25375 29.5831 5.13576 29.8685 5.13576 30.166C5.13576 30.4635 5.25375 30.7489 5.46378 30.9593C5.67381 31.1696 5.95867 31.2878 6.25569 31.2878H24.1746C24.4716 31.2878 24.7565 31.1696 24.9665 30.9593C25.1766 30.7489 25.2946 30.4635 25.2946 30.166C25.2946 29.8685 25.1766 29.5831 24.9665 29.3727C24.7565 29.1623 24.4716 29.0442 24.1746 29.0442H20.2175L19.9338 27.6291C19.8662 27.2902 19.6834 26.9851 19.4166 26.7659C19.1499 26.5466 18.8155 26.4267 18.4704 26.4265H16.3351V21.1404C23.9506 20.4224 25.3528 12.2987 25.6096 5.79352C25.6843 3.89985 25.7231 2.95151 25.0123 2.07647C24.3015 1.19994 23.4519 1.05634 21.7511 0.769149Z" fill="#51C2FF" fill-opacity="0.5"/>
</svg>
