<svg width="805" height="449" viewBox="0 0 805 449" fill="none" xmlns="http://www.w3.org/2000/svg">
<mask id="path-1-inside-1_93_730" fill="white">
<path fill-rule="evenodd" clip-rule="evenodd" d="M800.107 444.607C804.5 440.213 804.5 433.142 804.5 419L804.5 390C713.373 390 635.5 316.127 635.5 225C635.5 133.873 713.373 60.0001 804.5 60.0001L804.5 30.0001C804.5 15.8579 804.5 8.78687 800.107 4.39347C795.713 6.69421e-05 788.642 6.63239e-05 774.5 6.50876e-05L30 1.31119e-09C15.8579 -1.23503e-06 8.78684 -1.85321e-06 4.39341 4.3934C3.58633e-05 8.7868 3.52451e-05 15.8578 3.40088e-05 30L1.3112e-09 419C-1.23503e-06 433.142 -1.85321e-06 440.213 4.39337 444.607C8.7868 449 15.8578 449 30 449L774.5 449C788.642 449 795.713 449 800.107 444.607Z"/>
</mask>
<path d="M804.5 419L806.5 419L804.5 419ZM804.5 390L806.5 390L806.5 388L804.5 388L804.5 390ZM804.5 60.0001L804.5 62.0001L806.5 62.0001L806.5 60.0001L804.5 60.0001ZM804.5 30.0001L806.5 30.0001L804.5 30.0001ZM800.107 4.39347L798.692 5.80768L800.107 4.39347ZM774.5 6.50876e-05L774.5 2.00007L774.5 6.50876e-05ZM4.39341 4.3934L2.9792 2.97918L2.97919 2.97919L4.39341 4.3934ZM1.3112e-09 419L-2 419L1.3112e-09 419ZM4.39337 444.607L2.97915 446.021L2.97916 446.021L4.39337 444.607ZM30 449L30 451L30 449ZM802.5 419C802.5 426.128 802.496 431.272 801.969 435.193C801.449 439.056 800.456 441.429 798.692 443.192L801.521 446.021C804.151 443.391 805.354 440.032 805.933 435.726C806.504 431.477 806.5 426.015 806.5 419L802.5 419ZM802.5 390L802.5 419L806.5 419L806.5 390L802.5 390ZM804.5 388C714.415 388 637.5 314.961 637.5 225L633.5 225C633.5 317.293 712.331 392 804.5 392L804.5 388ZM637.5 225C637.5 135.039 714.415 62.0001 804.5 62.0001L804.5 58.0001C712.331 58.0001 633.5 132.707 633.5 225L637.5 225ZM802.5 30.0001L802.5 60.0001L806.5 60.0001L806.5 30.0001L802.5 30.0001ZM798.692 5.80768C800.456 7.57085 801.449 9.94456 801.969 13.8075C802.496 17.728 802.5 22.8725 802.5 30.0001L806.5 30.0001C806.5 22.9855 806.504 17.5235 805.933 13.2745C805.354 8.96802 804.151 5.6095 801.521 2.97926L798.692 5.80768ZM774.5 2.00007C781.628 2.00007 786.772 2.00431 790.693 2.53141C794.556 3.05077 796.929 4.04452 798.692 5.80768L801.521 2.97926C798.891 0.349017 795.532 -0.853931 791.226 -1.43292C786.977 -2.00418 781.515 -1.99993 774.5 -1.99993L774.5 2.00007ZM30 2L774.5 2.00007L774.5 -1.99993L30 -2L30 2ZM5.80762 5.80762C7.5708 4.04445 9.94452 3.0507 13.8074 2.53134C17.7279 2.00425 22.8724 2 30 2L30 -2C22.9855 -2 17.5234 -2.00425 13.2745 -1.43299C8.96797 -0.853999 5.60945 0.348948 2.9792 2.97918L5.80762 5.80762ZM2.00003 30C2.00003 22.8724 2.00428 17.7279 2.53137 13.8074C3.05073 9.94448 4.04447 7.57077 5.80763 5.80761L2.97919 2.97919C0.348969 5.60943 -0.85397 8.96794 -1.43296 13.2744C-2.00421 17.5234 -1.99997 22.9855 -1.99997 30L2.00003 30ZM2 419L2.00003 30L-1.99997 30L-2 419L2 419ZM5.80759 443.192C4.04444 441.429 3.05069 439.056 2.53134 435.193C2.00425 431.272 2 426.128 2 419L-2 419C-2 426.015 -2.00425 431.477 -1.433 435.726C-0.854008 440.032 0.34893 443.391 2.97915 446.021L5.80759 443.192ZM30 447C22.8724 447 17.7279 446.996 13.8074 446.469C9.94448 445.949 7.57076 444.956 5.80758 443.192L2.97916 446.021C5.60941 448.651 8.96793 449.854 13.2744 450.433C17.5234 451.004 22.9855 451 30 451L30 447ZM774.5 447L30 447L30 451L774.5 451L774.5 447ZM798.692 443.192C796.929 444.956 794.556 445.949 790.693 446.469C786.772 446.996 781.628 447 774.5 447L774.5 451C781.515 451 786.977 451.004 791.226 450.433C795.532 449.854 798.891 448.651 801.521 446.021L798.692 443.192Z" fill="white" mask="url(#path-1-inside-1_93_730)"/>
</svg>
